<?xml version="1.0" standalone="no"?>
<!DOCTYPE svg PUBLIC "-//W3C//DTD SVG 20010904//EN"
 "http://www.w3.org/TR/2001/REC-SVG-20010904/DTD/svg10.dtd">
<svg version="1.0" xmlns="http://www.w3.org/2000/svg"
 width="1920.000000pt" height="1440.000000pt" viewBox="0 0 1920.000000 1440.000000"
 preserveAspectRatio="xMidYMid meet">

<g transform="translate(0.000000,1440.000000) scale(0.100000,-0.100000)"
fill="#000000" stroke="none">
<path d="M6960 11665 l0 -425 430 0 430 0 0 425 0 425 -430 0 -430 0 0 -425z
m499 218 c22 -26 38 -49 37 -51 -4 -3 -114 -31 -128 -32 -3 0 -4 9 -1 19 4 17
1 19 -18 13 -102 -30 -159 -145 -114 -231 13 -26 13 -30 -5 -46 -27 -24 -45
-8 -60 56 -16 65 -6 126 29 181 33 52 76 82 144 99 27 6 51 18 54 25 8 22 19
17 62 -33z m150 -143 c34 -114 -14 -226 -121 -281 -20 -10 -51 -19 -67 -19
-21 0 -32 -6 -36 -20 -3 -11 -10 -20 -14 -20 -5 0 -29 24 -55 54 l-46 54 52
12 c29 6 63 13 76 17 22 5 23 3 17 -17 -6 -19 -4 -22 10 -17 9 4 21 7 25 7 21
0 79 63 95 102 19 49 14 95 -17 147 l-20 35 24 18 c22 17 23 17 44 -8 12 -15
27 -43 33 -64z"/>
<path d="M9070 11530 l0 -430 578 2 577 3 -572 2 -573 3 0 419 c0 326 3 420
13 424 7 3 5 6 -5 6 -17 1 -18 -26 -18 -429z"/>
<path d="M9570 11680 l0 -130 -62 0 -63 0 95 -95 95 -95 93 92 93 93 -58 5
-58 5 -3 128 -3 127 -64 0 -65 0 0 -130z"/>
<path d="M9330 11315 l0 -65 305 0 305 0 0 65 c0 63 -1 65 -25 65 -22 0 -25
-4 -25 -40 l0 -40 -255 0 -255 0 0 40 c0 36 -2 40 -25 40 -24 0 -25 -2 -25
-65z"/>
<path d="M10670 11168 c-36 -18 -50 -34 -70 -75 -23 -49 -28 -53 -60 -53 -77
0 -150 -89 -136 -164 17 -91 73 -126 200 -126 l86 0 0 45 0 45 55 0 55 0 0
-45 0 -45 86 0 c131 0 191 40 201 133 8 79 -59 156 -136 157 -33 1 -38 5 -61
53 -20 41 -34 57 -70 75 -24 12 -58 22 -75 22 -17 0 -51 -10 -75 -22z"/>
<path d="M11313 11103 c26 -2 68 -2 95 0 26 2 4 3 -48 3 -52 0 -74 -1 -47 -3z"/>
<path d="M12565 10930 c-8 -25 -53 -27 -70 -4 -12 18 -36 14 -69 -11 -15 -12
-17 -17 -7 -29 20 -24 -7 -59 -41 -52 -24 5 -28 2 -38 -32 -13 -49 -13 -49 9
-55 26 -6 34 -55 10 -62 -23 -8 -24 -17 -3 -56 13 -26 19 -29 43 -24 33 7 54
-13 49 -46 -2 -17 5 -24 35 -35 36 -13 38 -12 47 11 12 31 54 34 70 5 10 -19
12 -19 46 -3 29 14 34 21 29 40 -8 35 14 63 46 56 22 -4 27 -1 33 20 3 14 8
32 12 40 3 10 -3 17 -20 21 -33 8 -35 48 -5 69 18 13 19 18 9 39 -23 43 -31
48 -52 37 -27 -15 -60 15 -52 46 5 19 0 25 -27 34 -43 15 -47 14 -54 -9z m16
-141 c44 -23 40 -96 -6 -117 -66 -30 -126 57 -75 108 22 22 51 26 81 9z"/>
<path d="M10810 10596 l-75 -81 83 80 c45 44 82 81 82 82 0 12 -26 -11 -90
-81z"/>
<path d="M10685 10580 c21 -22 41 -40 44 -40 3 0 -13 18 -34 40 -21 22 -41 40
-44 40 -3 0 13 -18 34 -40z"/>
<path d="M13405 10477 c-3 -7 -4 -136 -3 -287 l3 -275 635 0 635 0 0 285 0
285 -633 3 c-504 2 -634 0 -637 -11z m325 -251 c0 -87 -3 -108 -19 -127 -27
-34 -95 -33 -122 0 -11 13 -18 31 -17 40 5 25 39 26 58 1 29 -39 40 -16 40 84
0 51 3 96 7 99 3 4 17 7 30 7 23 0 23 -2 23 -104z m229 -13 c22 -65 41 -124
41 -131 0 -22 -44 -9 -55 16 -8 18 -18 22 -58 22 -41 0 -49 -3 -57 -25 -7 -18
-17 -25 -35 -25 -14 0 -25 4 -25 9 0 10 77 228 86 242 3 5 18 9 33 9 27 0 30
-5 70 -117z m144 24 c17 -48 34 -84 38 -80 3 5 16 37 28 72 12 36 27 73 32 83
10 18 44 25 52 11 6 -9 -71 -222 -86 -241 -6 -7 -22 -12 -36 -10 -22 3 -30 16
-68 118 -23 63 -43 121 -43 128 0 9 10 12 26 10 24 -3 30 -13 57 -91z m326 66
c37 -95 79 -222 74 -227 -15 -14 -44 -4 -55 19 -10 21 -18 25 -58 25 -40 0
-48 -4 -58 -25 -11 -24 -45 -34 -56 -17 -3 5 13 58 35 118 22 60 42 115 44
122 2 6 17 12 33 12 23 0 32 -6 41 -27z"/>
<path d="M13871 10220 c-15 -46 -14 -50 14 -50 28 0 32 20 11 59 l-13 24 -12
-33z"/>
<path d="M14376 10227 c-3 -14 -9 -32 -12 -41 -5 -13 1 -16 24 -16 30 0 31 1
20 33 -15 45 -24 52 -32 24z"/>
<path d="M5430 10255 l0 -75 -120 0 -120 0 2 -362 3 -363 683 -3 682 -2 0 365
0 365 -505 0 -505 0 -56 75 c-31 41 -58 75 -60 75 -2 0 -4 -34 -4 -75z m230
-282 c0 -4 -34 -42 -75 -83 l-75 -75 75 -75 c41 -41 75 -78 75 -82 0 -5 -28
-8 -62 -8 l-63 0 -77 77 c-43 43 -78 82 -78 88 0 5 35 45 77 87 l78 78 62 0
c35 0 63 -3 63 -7z m316 -65 c-18 -40 -53 -114 -77 -165 l-44 -92 -53 -1 c-64
0 -67 -14 29 185 l70 145 54 0 54 0 -33 -72z m326 -12 l77 -83 -83 -82 -82
-82 -62 3 -61 3 74 81 74 81 -75 82 -76 81 69 0 68 -1 77 -83z"/>
<path d="M7244 10286 c-12 -31 1 -51 34 -54 31 -3 32 -2 32 32 0 33 -2 36 -30
36 -17 0 -33 -6 -36 -14z"/>
<path d="M7510 10265 l0 -35 85 0 85 0 0 35 0 35 -85 0 -85 0 0 -35z"/>
<path d="M7800 10265 l0 -35 175 0 175 0 0 35 0 35 -175 0 -175 0 0 -35z"/>
<path d="M8440 10265 l0 -35 75 0 75 0 0 35 0 35 -75 0 -75 0 0 -35z"/>
<path d="M10430 9625 l0 -575 725 0 725 0 2 188 3 187 468 3 467 2 0 385 0
385 -1195 0 -1195 0 0 -575z m1133 418 c-15 -3 -23 -12 -23 -24 0 -10 -4 -19
-10 -19 -5 0 -10 11 -10 25 0 22 4 25 33 24 23 -1 26 -3 10 -6z m175 0 c-16
-2 -40 -2 -55 0 -16 2 -3 4 27 4 30 0 43 -2 28 -4z m180 0 c-16 -2 -40 -2 -55
0 -16 2 -3 4 27 4 30 0 43 -2 28 -4z m185 0 c-13 -2 -35 -2 -50 0 -16 2 -5 4
22 4 28 0 40 -2 28 -4z m156 -20 c-1 -23 -2 -24 -6 -6 -2 13 -13 24 -26 26
-18 4 -17 5 6 6 23 1 27 -3 26 -26z m339 10 c-3 -16 -16 -18 -113 -18 -97 0
-110 2 -113 18 -3 15 7 17 113 17 106 0 116 -2 113 -17z m62 -4 c0 -15 -5 -20
-22 -17 -34 5 -37 38 -4 38 20 0 26 -5 26 -21z m60 1 c0 -13 -7 -20 -20 -20
-13 0 -20 7 -20 20 0 13 7 20 20 20 13 0 20 -7 20 -20z m-1700 -80 c0 -5 17
-10 38 -10 51 0 152 -51 193 -98 61 -69 108 -217 69 -217 -9 0 -17 15 -22 44
-18 103 -94 195 -190 227 -43 14 -58 15 -112 4 -84 -18 -132 -44 -190 -103
-72 -75 -91 -153 -62 -251 31 -103 111 -176 218 -198 61 -13 81 -38 30 -38
-59 0 -130 30 -182 77 -101 91 -132 209 -91 353 22 78 60 129 131 173 56 35
170 60 170 37z m1575 -45 c0 -19 -8 -20 -104 -23 -106 -3 -129 4 -118 33 6 13
23 15 114 13 100 -3 108 -4 108 -23z m65 0 c0 -18 -5 -25 -19 -25 -11 0 -23 5
-26 10 -11 18 3 40 25 40 15 0 20 -7 20 -25z m60 0 c0 -18 -5 -25 -20 -25 -15
0 -20 7 -20 25 0 18 5 25 20 25 15 0 20 -7 20 -25z m-1180 -65 c0 -27 -4 -52
-10 -55 -6 -4 -10 17 -10 55 0 38 4 59 10 55 6 -3 10 -28 10 -55z m717 -32
c-2 -18 -4 -4 -4 32 0 36 2 50 4 33 2 -18 2 -48 0 -65z m-1166 38 c57 -20 106
-64 134 -119 47 -95 26 -197 -56 -271 -151 -136 -379 -36 -382 168 -3 158 157
275 304 222z m1507 -68 c3 -16 -7 -18 -112 -18 -90 0 -116 3 -116 13 0 25 13
28 119 25 91 -3 106 -5 109 -20z m62 2 c0 -15 -7 -20 -25 -20 -24 0 -34 18
-18 33 15 15 43 7 43 -13z m60 0 c0 -13 -7 -20 -20 -20 -13 0 -20 7 -20 20 0
13 7 20 20 20 13 0 20 -7 20 -20z m-1180 -119 c0 -12 8 -21 23 -24 16 -3 13
-5 -10 -6 -29 -1 -33 2 -33 24 0 14 5 25 10 25 6 0 10 -9 10 -19z m720 -6 c0
-21 -4 -25 -27 -24 -24 2 -25 2 -5 6 14 3 22 12 22 24 0 10 2 19 5 19 3 0 5
-11 5 -25z m335 -5 c0 -12 -20 -16 -112 -18 -108 -3 -113 -2 -113 18 0 20 5
21 113 18 92 -2 112 -6 112 -18z m65 0 c0 -15 -7 -20 -25 -20 -18 0 -25 5 -25
20 0 15 7 20 25 20 18 0 25 -5 25 -20z m60 0 c0 -13 -7 -20 -20 -20 -13 0 -20
7 -20 20 0 13 7 20 20 20 13 0 20 -7 20 -20z m-982 -17 c-16 -2 -40 -2 -55 0
-16 2 -3 4 27 4 30 0 43 -2 28 -4z m180 0 c-16 -2 -40 -2 -55 0 -16 2 -3 4 27
4 30 0 43 -2 28 -4z m180 0 c-16 -2 -40 -2 -55 0 -16 2 -3 4 27 4 30 0 43 -2
28 -4z m-293 -113 l0 -45 -142 -3 -143 -3 0 44 c0 24 3 47 7 51 4 3 68 5 142
4 l136 -3 0 -45z m-135 -145 c0 -12 -15 -15 -75 -15 -60 0 -75 3 -75 15 0 12
15 15 75 15 60 0 75 -3 75 -15z m-2 -67 c-3 -9 -27 -13 -73 -13 -46 0 -70 4
-72 13 -4 9 15 12 72 12 57 0 76 -3 73 -12z m0 -65 c3 -10 -16 -13 -72 -13
-62 0 -76 3 -76 15 0 13 12 15 72 13 46 -2 73 -7 76 -15z"/>
<path d="M10950 9830 c-157 -53 -201 -240 -84 -357 106 -106 276 -76 346 61
16 31 19 53 16 105 -5 83 -38 137 -106 174 -63 34 -109 38 -172 17z m109 -125
c33 -17 56 -65 47 -100 -17 -67 -104 -90 -154 -41 -44 43 -26 122 33 147 29
12 43 11 74 -6z"/>
<path d="M7244 10166 c-8 -34 2 -46 37 -46 27 0 29 3 29 35 0 32 -2 35 -30 35
-23 0 -31 -5 -36 -24z"/>
<path d="M8070 10155 l0 -35 275 0 275 0 0 35 0 35 -275 0 -275 0 0 -35z"/>
<path d="M9150 10155 l0 -35 75 0 75 0 0 35 0 35 -75 0 -75 0 0 -35z"/>
<path d="M3504 10128 c-9 -30 -14 -33 -51 -36 -37 -3 -43 0 -59 27 l-17 30
-59 -30 c-32 -16 -58 -33 -58 -37 0 -5 7 -17 15 -28 19 -26 19 -28 -10 -63
-23 -27 -28 -29 -56 -19 -36 12 -41 8 -58 -51 -7 -23 -15 -49 -17 -56 -4 -8 6
-16 26 -20 33 -7 35 -10 44 -61 4 -27 1 -33 -30 -47 l-34 -17 30 -60 30 -60
34 17 c33 15 35 15 65 -8 16 -13 28 -30 25 -37 -19 -58 -18 -59 38 -77 29 -10
58 -20 65 -22 6 -3 14 9 18 26 8 36 9 37 55 46 33 6 37 4 53 -29 l17 -36 59
32 58 33 -15 31 c-14 30 -13 33 9 63 23 32 34 34 82 15 11 -4 20 9 32 48 10
29 20 58 22 65 3 6 -9 14 -26 18 -36 8 -36 8 -45 56 -6 33 -4 37 28 54 l34 19
-29 58 c-16 32 -32 58 -35 58 -3 0 -19 -7 -36 -16 -30 -16 -31 -15 -60 13 -26
26 -28 32 -18 58 13 33 9 38 -49 54 -23 7 -49 15 -55 17 -8 3 -17 -8 -22 -28z
m43 -243 c32 -32 35 -40 30 -77 -7 -53 -42 -88 -95 -95 -37 -5 -45 -2 -77 30
-25 25 -35 44 -35 67 0 64 43 109 104 110 30 0 45 -7 73 -35z"/>
<path d="M7244 10066 c-12 -31 1 -51 34 -54 31 -3 32 -2 32 32 0 33 -2 36 -30
36 -17 0 -33 -6 -36 -14z"/>
<path d="M7508 10063 c-11 -47 -1 -53 88 -53 l84 0 0 35 0 35 -84 0 c-71 0
-84 -3 -88 -17z"/>
<path d="M7800 10045 l0 -35 305 0 305 0 0 35 0 35 -305 0 -305 0 0 -35z"/>
<path d="M8990 10045 l0 -35 150 0 150 0 0 35 0 35 -150 0 -150 0 0 -35z"/>
<path d="M9360 10045 l0 -36 68 3 67 3 0 30 0 30 -67 3 -68 3 0 -36z"/>
<path d="M7244 9956 c-12 -31 1 -51 34 -54 31 -3 32 -2 32 32 0 33 -2 36 -30
36 -17 0 -33 -6 -36 -14z"/>
<path d="M7800 9935 l0 -35 230 0 230 0 0 35 0 35 -230 0 -230 0 0 -35z"/>
<path d="M9233 9842 l-403 -2 0 -123 c-1 -106 -1 -519 0 -539 0 -5 218 -8 485
-8 l485 0 0 334 0 334 -82 4 c-46 2 -264 2 -485 0z m267 -82 c21 -7 19 -8 -17
-9 -24 -1 -43 4 -43 9 0 12 24 12 60 0z m163 -7 c-13 -2 -33 -2 -45 0 -13 2
-3 4 22 4 25 0 35 -2 23 -4z m67 -79 c0 -27 -4 -43 -10 -39 -17 11 -11 85 7
85 2 0 3 -21 3 -46z m-565 1 c17 -16 25 -35 25 -60 0 -33 2 -35 35 -35 l35 0
0 -130 0 -130 -135 0 -135 0 0 130 0 130 35 0 c34 0 35 1 35 38 0 39 14 66 40
75 29 10 41 7 65 -18z m265 -25 c0 -22 -4 -40 -10 -40 -5 0 -10 18 -10 40 0
22 5 40 10 40 6 0 10 -18 10 -40z m300 -140 c0 -22 -4 -40 -10 -40 -5 0 -10
18 -10 40 0 22 5 40 10 40 6 0 10 -18 10 -40z m-300 -19 c0 -22 -4 -43 -10
-46 -6 -4 -10 12 -10 39 0 25 5 46 10 46 6 0 10 -18 10 -39z m300 -147 c0 -50
-14 -54 -18 -4 -2 29 3 50 14 50 2 0 4 -21 4 -46z m-300 -25 c0 -21 -4 -39
-10 -39 -5 0 -10 21 -10 46 0 27 4 43 10 39 6 -3 10 -24 10 -46z m113 -66
c-13 -2 -35 -2 -50 0 -16 2 -5 4 22 4 28 0 40 -2 28 -4z m160 0 c-13 -2 -33
-2 -45 0 -13 2 -3 4 22 4 25 0 35 -2 23 -4z"/>
<path d="M9087 9662 c-10 -10 -17 -33 -17 -50 0 -32 1 -32 50 -32 l50 0 0 38
c0 21 -5 43 -12 50 -18 18 -53 15 -71 -6z"/>
<path d="M9093 9494 c-3 -9 -1 -25 5 -35 7 -10 12 -33 12 -50 0 -20 4 -29 13
-26 7 2 11 16 9 32 -2 15 4 35 14 46 14 15 14 21 4 34 -16 20 -49 19 -57 -1z"/>
<path d="M4023 9813 c9 -2 23 -2 30 0 6 3 -1 5 -18 5 -16 0 -22 -2 -12 -5z"/>
<path d="M4168 9813 c12 -2 30 -2 40 0 9 3 -1 5 -23 4 -22 0 -30 -2 -17 -4z"/>
<path d="M4333 9813 c9 -2 25 -2 35 0 9 3 1 5 -18 5 -19 0 -27 -2 -17 -5z"/>
<path d="M4498 9813 c12 -2 32 -2 45 0 12 2 2 4 -23 4 -25 0 -35 -2 -22 -4z"/>
<path d="M4668 9813 c12 -2 30 -2 40 0 9 3 -1 5 -23 4 -22 0 -30 -2 -17 -4z"/>
<path d="M4848 9813 c7 -3 16 -2 19 1 4 3 -2 6 -13 5 -11 0 -14 -3 -6 -6z"/>
<path d="M4993 9813 c9 -2 23 -2 30 0 6 3 -1 5 -18 5 -16 0 -22 -2 -12 -5z"/>
<path d="M3472 9290 c0 -14 2 -19 5 -12 2 6 2 18 0 25 -3 6 -5 1 -5 -13z"/>
<path d="M3471 9144 c0 -11 3 -14 6 -6 3 7 2 16 -1 19 -3 4 -6 -2 -5 -13z"/>
<path d="M14225 8970 l-99 -100 29 -32 c17 -18 62 -66 100 -106 l70 -73 78 3
77 3 -48 50 c-26 28 -70 74 -97 103 l-49 53 99 99 100 100 -80 0 -80 0 -100
-100z"/>
<path d="M14700 8893 c-47 -97 -90 -189 -97 -205 l-12 -28 63 0 63 0 94 196
c52 108 96 200 97 205 2 5 -25 9 -60 9 l-64 0 -84 -177z"/>
<path d="M15117 8975 c48 -53 90 -101 92 -107 2 -5 -41 -55 -95 -109 l-99 -99
80 0 80 0 103 103 103 104 -96 101 -97 102 -80 0 -79 0 88 -95z"/>
<path d="M4170 8820 l0 -160 2050 -2 2050 -3 0 163 0 162 -2050 0 -2050 0 0
-160z m186 25 c15 -23 15 -27 0 -50 -11 -17 -26 -25 -44 -25 -35 0 -52 16 -52
50 0 34 17 50 52 50 18 0 33 -8 44 -25z m192 13 c7 -7 12 -24 12 -38 0 -14 -5
-31 -12 -38 -7 -7 -24 -12 -38 -12 -14 0 -31 5 -38 12 -7 7 -12 24 -12 38 0
14 5 31 12 38 7 7 24 12 38 12 14 0 31 -5 38 -12z m200 0 c7 -7 12 -24 12 -38
0 -34 -17 -50 -52 -50 -18 0 -33 8 -44 25 -15 23 -15 27 0 50 18 27 63 34 84
13z"/>
<path d="M3471 8834 c0 -11 3 -14 6 -6 3 7 2 16 -1 19 -3 4 -6 -2 -5 -13z"/>
<path d="M3471 8794 c0 -11 3 -14 6 -6 3 7 2 16 -1 19 -3 4 -6 -2 -5 -13z"/>
<path d="M3472 8645 c0 -16 2 -22 5 -12 2 9 2 23 0 30 -3 6 -5 -1 -5 -18z"/>
<path d="M3472 8470 c0 -14 2 -19 5 -12 2 6 2 18 0 25 -3 6 -5 1 -5 -13z"/>
<path d="M10974 8473 c-9 -15 -14 -16 -27 -5 -24 20 -55 6 -59 -26 -2 -19 -9
-27 -22 -27 -24 0 -41 -41 -20 -49 17 -6 19 -43 3 -48 -16 -5 7 -49 24 -47 27
3 37 -2 37 -20 0 -28 38 -38 55 -15 13 18 14 18 32 1 16 -14 22 -15 35 -4 9 6
18 21 20 32 2 11 12 21 25 23 28 4 38 41 15 58 -14 11 -15 16 -4 34 13 22 0
66 -18 55 -16 -10 -42 7 -37 26 3 11 -2 19 -17 23 -30 8 -30 8 -42 -11z m17
-83 c23 -13 25 -52 4 -70 -12 -10 -21 -10 -40 -2 -30 14 -34 56 -7 71 21 13
20 13 43 1z"/>
<path d="M8261 8423 c-1 -10 -113 -13 -526 -13 l-525 0 0 -105 0 -105 528 -2
c290 -2 580 -2 645 0 l117 3 0 105 0 104 -114 0 c-82 0 -116 4 -119 13 -4 10
-6 10 -6 0z"/>
<path d="M4440 8364 c0 -45 24 -42 28 4 2 24 -1 32 -12 32 -12 0 -16 -10 -16
-36z"/>
<path d="M4580 8365 l0 -35 145 0 145 0 0 35 0 35 -145 0 -145 0 0 -35z"/>
<path d="M5120 8365 l0 -35 60 0 60 0 0 35 0 35 -60 0 -60 0 0 -35z"/>
<path d="M3473 8325 c0 -22 2 -30 4 -17 2 12 2 30 0 40 -3 9 -5 -1 -4 -23z"/>
<path d="M11208 8353 c12 -2 30 -2 40 0 9 3 -1 5 -23 4 -22 0 -30 -2 -17 -4z"/>
<path d="M11368 8353 c12 -2 30 -2 40 0 9 3 -1 5 -23 4 -22 0 -30 -2 -17 -4z"/>
<path d="M11538 8353 c12 -2 30 -2 40 0 9 3 -1 5 -23 4 -22 0 -30 -2 -17 -4z"/>
<path d="M11698 8353 c12 -2 32 -2 45 0 12 2 2 4 -23 4 -25 0 -35 -2 -22 -4z"/>
<path d="M11858 8353 c12 -2 32 -2 45 0 12 2 2 4 -23 4 -25 0 -35 -2 -22 -4z"/>
<path d="M12028 8353 c12 -2 30 -2 40 0 9 3 -1 5 -23 4 -22 0 -30 -2 -17 -4z"/>
<path d="M12198 8353 c12 -2 30 -2 40 0 9 3 -1 5 -23 4 -22 0 -30 -2 -17 -4z"/>
<path d="M12358 8353 c12 -2 30 -2 40 0 9 3 -1 5 -23 4 -22 0 -30 -2 -17 -4z"/>
<path d="M12528 8353 c12 -2 30 -2 40 0 9 3 -1 5 -23 4 -22 0 -30 -2 -17 -4z"/>
<path d="M12688 8353 c12 -2 30 -2 40 0 9 3 -1 5 -23 4 -22 0 -30 -2 -17 -4z"/>
<path d="M12848 8353 c12 -2 32 -2 45 0 12 2 2 4 -23 4 -25 0 -35 -2 -22 -4z"/>
<path d="M13018 8353 c12 -2 30 -2 40 0 9 3 -1 5 -23 4 -22 0 -30 -2 -17 -4z"/>
<path d="M13160 8356 c0 -2 13 -6 29 -8 17 -2 28 -1 25 4 -5 8 -54 12 -54 4z"/>
<path d="M15135 8310 c10 -11 20 -20 23 -20 3 0 -3 9 -13 20 -10 11 -20 20
-23 20 -3 0 3 -9 13 -20z"/>
<path d="M4440 8255 c0 -25 4 -35 13 -32 6 2 12 16 12 32 0 16 -6 30 -12 33
-9 2 -13 -8 -13 -33z"/>
<path d="M4967 8276 c-3 -8 -4 -22 -3 -32 3 -18 18 -19 234 -22 l232 -2 0 35
0 35 -229 0 c-186 0 -230 -3 -234 -14z"/>
<path d="M5870 8255 l0 -35 65 0 65 0 0 35 0 35 -65 0 -65 0 0 -35z"/>
<path d="M3472 8160 c0 -19 2 -27 5 -17 2 9 2 25 0 35 -3 9 -5 1 -5 -18z"/>
<path d="M4440 8146 c0 -26 4 -36 16 -36 11 0 14 8 12 32 -4 46 -28 49 -28 4z"/>
<path d="M4580 8145 l0 -35 255 0 255 0 0 35 0 35 -255 0 -255 0 0 -35z"/>
<path d="M5580 8145 l0 -35 120 0 c73 0 120 4 121 10 7 58 14 55 -119 58
l-122 3 0 -36z"/>
<path d="M5890 8145 l0 -35 55 0 55 0 0 35 0 35 -55 0 -55 0 0 -35z"/>
<path d="M15265 8140 c3 -5 8 -10 11 -10 2 0 4 5 4 10 0 6 -5 10 -11 10 -5 0
-7 -4 -4 -10z"/>
<path d="M4440 8036 c0 -26 4 -36 16 -36 11 0 14 8 12 32 -4 46 -28 49 -28 4z"/>
<path d="M4580 8035 l0 -35 190 0 190 0 0 35 0 35 -190 0 -190 0 0 -35z"/>
<path d="M9925 8021 c61 -37 111 -120 103 -170 -2 -16 -14 -7 -55 43 -101 124
-218 148 -368 75 -59 -29 -74 -41 -93 -79 -30 -58 -25 -126 15 -201 15 -30 29
-57 31 -61 2 -5 -29 -8 -70 -8 -174 -1 -320 -60 -439 -179 -88 -88 -132 -169
-151 -279 -14 -81 -2 -166 33 -233 16 -33 17 -45 8 -96 -6 -32 -9 -122 -7
-203 4 -121 11 -180 48 -362 25 -120 49 -218 53 -218 5 0 7 10 3 23 -8 34 11
292 29 378 8 41 27 113 42 162 l26 87 -29 31 -29 31 51 -26 c28 -14 125 -51
215 -82 90 -31 225 -80 300 -110 74 -30 145 -54 156 -54 11 0 65 22 119 49
151 73 257 113 524 196 47 14 92 29 100 31 8 3 -3 -10 -24 -28 l-39 -35 26
-84 c48 -151 76 -334 78 -514 1 -68 2 -63 46 140 45 209 45 211 48 425 1 122
6 230 13 250 14 44 14 313 0 362 -25 88 -131 168 -279 212 -52 15 -132 41
-178 57 -46 16 -108 32 -137 35 -30 4 -54 9 -54 11 0 2 14 24 30 49 84 122 80
280 -9 343 -37 26 -105 51 -140 51 l-26 0 30 -19z m-324 -136 c-16 -19 -35
-54 -42 -77 l-12 -43 -13 32 c-18 43 -3 86 39 107 52 25 62 19 28 -19z m-252
-340 c-70 -25 -156 -75 -207 -120 -64 -58 -68 -45 -7 23 58 64 105 94 175 108
64 13 89 6 39 -11z m1142 -98 c49 -20 119 -84 136 -124 7 -18 13 -52 12 -75 0
-37 -2 -40 -12 -24 -56 87 -75 111 -120 155 -29 27 -65 61 -82 75 l-30 25 30
-8 c17 -5 46 -15 66 -24z"/>
<path d="M3472 8005 c0 -16 2 -22 5 -12 2 9 2 23 0 30 -3 6 -5 -1 -5 -18z"/>
<path d="M4440 7920 c0 -20 5 -30 15 -30 10 0 15 10 15 30 0 20 -5 30 -15 30
-10 0 -15 -10 -15 -30z"/>
<path d="M4740 7920 l0 -30 65 0 65 0 0 30 0 30 -65 0 -65 0 0 -30z"/>
<path d="M5310 7920 l0 -30 230 0 230 0 0 30 0 30 -230 0 -230 0 0 -30z"/>
<path d="M6860 7905 l0 -35 180 0 180 0 0 35 0 35 -180 0 -180 0 0 -35z"/>
<path d="M3473 7830 c0 -25 2 -35 4 -22 2 12 2 32 0 45 -2 12 -4 2 -4 -23z"/>
<path d="M4440 7804 c0 -45 24 -42 28 4 2 24 -1 32 -12 32 -12 0 -16 -10 -16
-36z"/>
<path d="M4580 7804 l0 -35 53 3 c51 3 52 4 55 36 l3 32 -55 0 -56 0 0 -36z"/>
<path d="M4750 7805 l0 -35 125 0 125 0 0 35 0 35 -125 0 -125 0 0 -35z"/>
<path d="M5482 7808 l3 -33 258 -3 257 -2 0 35 0 35 -261 0 -260 0 3 -32z"/>
<path d="M11390 7710 l0 -130 1595 0 1595 0 0 130 0 130 -1595 0 -1595 0 0
-130z m2804 18 c16 -26 -4 -53 -40 -53 -23 0 -30 5 -32 23 -7 47 47 69 72 30z
m146 8 c6 -8 10 -25 8 -38 -6 -42 -78 -32 -78 11 0 37 46 55 70 27z m162 -11
c8 -19 8 -28 -2 -40 -18 -21 -57 -19 -70 4 -13 25 -13 27 6 45 23 24 53 20 66
-9z"/>
<path d="M7150 7795 l0 -35 125 0 125 0 0 35 0 35 -125 0 -125 0 0 -35z"/>
<path d="M4440 7694 c0 -45 24 -42 28 4 2 24 -1 32 -12 32 -12 0 -16 -10 -16
-36z"/>
<path d="M4580 7695 l0 -35 145 0 145 0 0 35 0 35 -145 0 -145 0 0 -35z"/>
<path d="M5120 7695 l0 -35 60 0 60 0 0 35 0 35 -60 0 -60 0 0 -35z"/>
<path d="M6965 7700 c-4 -6 -1 -18 6 -26 10 -12 14 -12 20 -2 5 7 9 19 9 26 0
15 -26 16 -35 2z"/>
<path d="M3473 7665 c0 -22 2 -30 4 -17 2 12 2 30 0 40 -3 9 -5 -1 -4 -23z"/>
<path d="M15580 7641 c-9 -22 -20 -31 -48 -36 -37 -7 -40 -5 -67 40 -10 16
-15 15 -65 -10 -30 -15 -56 -29 -58 -30 -1 -1 5 -16 14 -32 17 -28 16 -30 -6
-61 -14 -19 -30 -30 -38 -27 -53 20 -57 18 -75 -38 -22 -71 -22 -74 13 -82 17
-4 30 -7 31 -8 0 -1 2 -20 5 -43 5 -38 4 -42 -25 -54 -17 -7 -31 -14 -31 -17
0 -4 50 -106 55 -111 2 -2 18 4 35 13 32 17 33 17 62 -12 25 -26 28 -33 18
-57 -13 -36 -9 -41 44 -55 24 -6 50 -13 58 -16 12 -5 17 3 22 28 6 32 10 35
47 39 36 3 42 1 55 -24 8 -15 19 -28 25 -28 13 0 109 49 109 56 0 3 -6 17 -14
32 -13 25 -12 30 8 55 19 24 29 28 61 25 35 -3 38 -1 50 32 28 81 29 77 -10
90 -32 11 -35 15 -35 51 0 33 4 41 30 54 l30 16 -30 59 -30 60 -32 -16 c-29
-15 -32 -15 -57 4 -22 16 -26 27 -23 60 l2 41 -52 16 c-66 19 -64 20 -78 -14z
m29 -217 c52 -37 59 -113 15 -158 -45 -44 -121 -37 -158 15 -44 64 4 159 81
159 21 0 49 -7 62 -16z"/>
<path d="M4440 7585 c0 -25 4 -35 13 -32 6 2 12 16 12 32 0 16 -6 30 -12 33
-9 2 -13 -8 -13 -33z"/>
<path d="M4967 7613 c-3 -7 -3 -15 1 -50 2 -10 55 -13 232 -13 l230 0 0 35 0
35 -229 0 c-127 0 -232 -3 -234 -7z"/>
<path d="M5870 7585 l0 -35 65 0 65 0 0 35 0 35 -65 0 -65 0 0 -35z"/>
<path d="M7150 7431 l0 -138 42 -7 c49 -8 123 -75 133 -121 4 -17 8 -36 11
-42 2 -10 39 -13 139 -13 154 0 145 -7 124 92 -37 173 -174 311 -350 353 -107
25 -99 35 -99 -124z"/>
<path d="M3473 7505 c0 -22 2 -30 4 -17 2 12 2 30 0 40 -3 9 -5 -1 -4 -23z"/>
<path d="M4440 7476 c0 -26 4 -36 16 -36 11 0 14 8 12 32 -4 46 -28 49 -28 4z"/>
<path d="M4580 7475 l0 -35 255 0 255 0 0 35 0 35 -255 0 -255 0 0 -35z"/>
<path d="M5578 7487 c-9 -45 -3 -47 126 -47 l122 0 -1 33 0 32 -121 3 c-120 3
-122 2 -126 -21z"/>
<path d="M5890 7475 l0 -35 55 0 55 0 0 35 0 35 -55 0 -55 0 0 -35z"/>
<path d="M6982 7415 c0 -16 2 -22 5 -12 2 9 2 23 0 30 -3 6 -5 -1 -5 -18z"/>
<path d="M11548 7413 c6 -2 18 -2 25 0 6 3 1 5 -13 5 -14 0 -19 -2 -12 -5z"/>
<path d="M11678 7413 c12 -2 30 -2 40 0 9 3 -1 5 -23 4 -22 0 -30 -2 -17 -4z"/>
<path d="M11833 7413 c9 -2 25 -2 35 0 9 3 1 5 -18 5 -19 0 -27 -2 -17 -5z"/>
<path d="M11988 7413 c12 -2 30 -2 40 0 9 3 -1 5 -23 4 -22 0 -30 -2 -17 -4z"/>
<path d="M12143 7413 c9 -2 25 -2 35 0 9 3 1 5 -18 5 -19 0 -27 -2 -17 -5z"/>
<path d="M12298 7413 c12 -2 30 -2 40 0 9 3 -1 5 -23 4 -22 0 -30 -2 -17 -4z"/>
<path d="M12478 7413 c7 -3 16 -2 19 1 4 3 -2 6 -13 5 -11 0 -14 -3 -6 -6z"/>
<path d="M12608 7413 c12 -2 30 -2 40 0 9 3 -1 5 -23 4 -22 0 -30 -2 -17 -4z"/>
<path d="M12750 7416 c0 -2 9 -6 20 -9 11 -3 20 -1 20 4 0 5 -9 9 -20 9 -11 0
-20 -2 -20 -4z"/>
<path d="M4442 7364 c2 -22 8 -38 13 -36 15 3 12 65 -3 70 -10 3 -13 -6 -10
-34z"/>
<path d="M4580 7364 c0 -25 4 -34 18 -35 9 0 95 -1 190 -2 l172 -2 0 38 0 38
-190 -1 -190 -1 0 -35z"/>
<path d="M3473 7335 c0 -22 2 -30 4 -17 2 12 2 30 0 40 -3 9 -5 -1 -4 -23z"/>
<path d="M13257 7333 c-4 -3 -7 -44 -7 -90 l0 -83 115 0 115 0 0 90 0 90 -108
0 c-60 0 -112 -3 -115 -7z"/>
<path d="M13677 7333 c-4 -3 -7 -44 -7 -90 l0 -83 45 0 45 0 0 90 0 90 -38 0
c-21 0 -42 -3 -45 -7z"/>
<path d="M4440 7244 c0 -45 24 -42 28 4 2 24 -1 32 -12 32 -12 0 -16 -10 -16
-36z"/>
<path d="M4740 7245 l0 -36 63 3 c62 3 62 3 65 36 l3 32 -65 0 -66 0 0 -35z"/>
<path d="M5310 7245 l0 -35 230 0 230 0 0 35 0 35 -230 0 -230 0 0 -35z"/>
<path d="M12782 7245 c0 -16 2 -22 5 -12 2 9 2 23 0 30 -3 6 -5 -1 -5 -18z"/>
<path d="M3473 7175 c0 -22 2 -30 4 -17 2 12 2 30 0 40 -3 9 -5 -1 -4 -23z"/>
<path d="M7880 7145 l0 -35 105 0 105 0 0 35 0 35 -105 0 -105 0 0 -35z"/>
<path d="M4440 7134 c0 -45 24 -42 28 4 2 24 -1 32 -12 32 -12 0 -16 -10 -16
-36z"/>
<path d="M4580 7135 l0 -35 55 0 55 0 0 35 0 35 -55 0 -55 0 0 -35z"/>
<path d="M4750 7135 l0 -35 125 0 125 0 0 35 0 35 -125 0 -125 0 0 -35z"/>
<path d="M5482 7138 l3 -33 258 -3 257 -2 0 35 0 35 -261 0 -260 0 3 -32z"/>
<path d="M11999 7148 c0 -2 -11 -48 -23 -103 l-22 -100 -112 -3 -112 -3 0 -74
0 -75 96 0 c86 0 95 -2 90 -17 -2 -10 -10 -45 -16 -78 -20 -104 -8 -95 -130
-95 l-109 0 -3 -52 c-2 -29 1 -65 7 -80 9 -28 11 -28 92 -28 66 0 83 -3 83
-14 0 -13 -6 -41 -35 -174 -6 -23 -5 -23 77 -20 l82 3 21 100 21 100 112 3
c86 2 112 0 112 -10 0 -7 -9 -53 -20 -102 -11 -50 -20 -92 -20 -93 0 -2 37 -3
82 -1 l82 3 21 100 21 100 97 3 97 3 0 79 0 80 -79 0 -79 0 8 38 c5 20 13 63
20 95 l11 57 95 0 94 0 0 75 0 75 -75 0 c-59 0 -75 3 -75 14 0 13 6 41 35 174
6 23 5 23 -77 20 l-83 -3 -21 -100 -20 -100 -112 -3 c-102 -2 -112 -1 -112 15
0 16 7 47 35 171 5 21 3 22 -75 22 -44 0 -80 -1 -81 -2z m307 -375 c-2 -10
-12 -53 -21 -95 l-17 -78 -115 0 c-104 0 -114 2 -109 18 6 17 36 160 36 168 0
2 52 4 116 4 105 0 115 -2 110 -17z"/>
<path d="M12782 7090 c0 -19 2 -27 5 -17 2 9 2 25 0 35 -3 9 -5 1 -5 -18z"/>
<path d="M7772 7038 l3 -33 73 -3 72 -3 0 36 0 35 -76 0 -75 0 3 -32z"/>
<path d="M13550 6960 l0 -90 180 0 180 0 0 90 0 90 -180 0 -180 0 0 -90z"/>
<path d="M14250 6960 l0 -90 50 0 50 0 0 90 0 90 -50 0 -50 0 0 -90z"/>
<path d="M3472 7010 c0 -19 2 -27 5 -17 2 9 2 25 0 35 -3 9 -5 1 -5 -18z"/>
<path d="M12782 6945 c0 -16 2 -22 5 -12 2 9 2 23 0 30 -3 6 -5 -1 -5 -18z"/>
<path d="M7912 6927 c-14 -16 -6 -27 20 -27 13 0 18 6 16 17 -4 22 -22 27 -36
10z"/>
<path d="M7488 6913 c7 -3 16 -2 19 1 4 3 -2 6 -13 5 -11 0 -14 -3 -6 -6z"/>
<path d="M7598 6913 c7 -3 16 -2 19 1 4 3 -2 6 -13 5 -11 0 -14 -3 -6 -6z"/>
<path d="M7778 6913 c6 -2 18 -2 25 0 6 3 1 5 -13 5 -14 0 -19 -2 -12 -5z"/>
<path d="M3473 6845 c0 -22 2 -30 4 -17 2 12 2 30 0 40 -3 9 -5 -1 -4 -23z"/>
<path d="M12782 6785 c0 -16 2 -22 5 -12 2 9 2 23 0 30 -3 6 -5 -1 -5 -18z"/>
<path d="M5712 6758 l3 -33 180 0 180 0 1 33 1 32 -184 0 -184 0 3 -32z"/>
<path d="M13252 6673 l3 -88 198 -3 197 -2 0 90 0 90 -200 0 -201 0 3 -87z"/>
<path d="M14022 6673 l3 -88 95 0 95 0 3 88 3 87 -101 0 -101 0 3 -87z"/>
<path d="M14262 6673 l3 -88 43 -3 42 -3 0 90 0 91 -45 0 -46 0 3 -87z"/>
<path d="M3473 6680 c0 -25 2 -35 4 -22 2 12 2 32 0 45 -2 12 -4 2 -4 -23z"/>
<path d="M6342 6703 c2 -10 10 -18 18 -18 22 0 18 29 -3 33 -14 3 -18 -1 -15
-15z"/>
<path d="M6000 6645 l0 -35 125 0 125 0 0 35 0 35 -125 0 -125 0 0 -35z"/>
<path d="M12782 6620 c0 -14 2 -19 5 -12 2 6 2 18 0 25 -3 6 -5 1 -5 -13z"/>
<path d="M9405 6535 c-36 -13 -95 -64 -95 -83 0 -4 67 -7 150 -7 165 0 173 3
122 55 -26 26 -86 50 -122 50 -8 -1 -33 -7 -55 -15z"/>
<path d="M10199 6540 c-40 -12 -79 -40 -93 -69 l-14 -26 154 0 c101 0 154 4
154 11 0 19 -66 74 -101 84 -39 11 -63 12 -100 0z"/>
<path d="M3472 6520 c0 -14 2 -19 5 -12 2 6 2 18 0 25 -3 6 -5 1 -5 -13z"/>
<path d="M12782 6445 c0 -16 2 -22 5 -12 2 9 2 23 0 30 -3 6 -5 -1 -5 -18z"/>
<path d="M13252 6383 l3 -88 148 -3 147 -3 0 91 0 90 -150 0 -151 0 3 -87z"/>
<path d="M11385 6350 c-33 -33 -64 -60 -69 -60 -5 0 -20 10 -33 22 -15 14 -27
18 -33 12 -7 -7 4 -23 30 -49 l40 -39 76 75 c61 61 73 78 62 87 -11 9 -26 -1
-73 -48z"/>
<path d="M7350 6326 c0 -2 8 -10 18 -17 15 -13 16 -12 3 4 -13 16 -21 21 -21
13z"/>
<path d="M9455 6314 c-6 -1 -26 -5 -46 -8 -19 -4 -44 -13 -55 -21 -17 -12 -14
-12 21 0 52 18 137 19 180 1 38 -16 47 -13 15 4 -22 12 -100 28 -115 24z"/>
<path d="M12781 6304 c0 -11 3 -14 6 -6 3 7 2 16 -1 19 -3 4 -6 -2 -5 -13z"/>
<path d="M10150 6290 c-42 -23 -36 -26 13 -5 20 8 59 15 87 15 28 0 67 -7 87
-15 49 -21 55 -18 13 5 -24 13 -55 19 -100 19 -45 0 -76 -6 -100 -19z"/>
<path d="M8385 6250 c-42 -43 -56 -48 -75 -25 -7 8 -17 12 -22 9 -5 -3 3 -19
18 -35 l28 -29 53 52 c29 29 53 56 53 60 0 17 -17 7 -55 -32z"/>
<path d="M9410 6170 c-45 -45 -11 -130 52 -130 36 0 78 40 78 75 0 61 -87 98
-130 55z"/>
<path d="M10195 6165 c-14 -13 -25 -36 -25 -50 0 -35 42 -75 78 -75 63 0 96
87 50 130 -30 27 -73 26 -103 -5z"/>
<path d="M7480 6156 c0 -2 8 -10 18 -17 15 -13 16 -12 3 4 -13 16 -21 21 -21
13z"/>
<path d="M12782 6130 c0 -19 2 -27 5 -17 2 9 2 25 0 35 -3 9 -5 1 -5 -18z"/>
<path d="M7510 6116 c0 -2 8 -10 18 -17 15 -13 16 -12 3 4 -13 16 -21 21 -21
13z"/>
<path d="M13907 6092 l-657 -2 2 -333 3 -332 748 -3 747 -2 0 334 0 335 -92 3
c-51 2 -389 2 -751 0z m-407 -237 l0 -65 65 0 65 0 0 66 0 65 33 -3 32 -3 0
-155 0 -155 -32 -3 -33 -3 0 65 0 66 -65 0 -65 0 0 -66 0 -65 -32 3 -33 3 -3
145 c-1 79 0 150 2 157 3 7 19 13 36 13 l30 0 0 -65z m460 35 c0 -28 -2 -30
-40 -30 l-40 0 0 -130 0 -130 -30 0 -30 0 0 130 0 130 -40 0 c-42 0 -58 15
-46 45 4 12 27 15 116 15 l110 0 0 -30z m165 -81 c26 -60 51 -106 55 -102 4 4
26 54 50 111 l44 103 35 -3 36 -3 0 -155 0 -155 -32 -3 -32 -3 -3 92 -3 92
-36 -89 c-33 -81 -39 -89 -64 -89 -25 0 -30 8 -64 90 l-36 90 -3 -92 -3 -93
-29 0 -30 0 0 160 0 160 34 0 c33 0 34 -1 81 -111z m343 -21 l3 -128 49 0 c49
0 50 -1 50 -30 l0 -30 -85 0 -85 0 0 153 c0 85 3 157 7 161 4 4 19 6 33 4 l25
-3 3 -127z"/>
<path d="M7540 6076 c0 -2 8 -10 18 -17 15 -13 16 -12 3 4 -13 16 -21 21 -21
13z"/>
<path d="M12781 5984 c0 -11 3 -14 6 -6 3 7 2 16 -1 19 -3 4 -6 -2 -5 -13z"/>
<path d="M7610 5986 c0 -2 8 -10 18 -17 15 -13 16 -12 3 4 -13 16 -21 21 -21
13z"/>
<path d="M7645 5940 c3 -5 11 -10 16 -10 6 0 7 5 4 10 -3 6 -11 10 -16 10 -6
0 -7 -4 -4 -10z"/>
<path d="M9951 5883 c0 -12 4 -56 10 -98 11 -83 1 -137 -29 -155 -10 -5 -12
-10 -4 -10 21 0 52 62 51 105 0 46 -26 191 -28 158z"/>
<path d="M12089 5763 c-13 -16 -12 -17 4 -4 9 7 17 15 17 17 0 8 -8 3 -21 -13z"/>
<path d="M11989 5633 c-13 -16 -12 -17 4 -4 9 7 17 15 17 17 0 8 -8 3 -21 -13z"/>
<path d="M4383 5592 c-5 -19 -55 -39 -61 -24 -13 34 -21 36 -57 19 -32 -15
-36 -21 -30 -46 7 -33 -13 -54 -46 -49 -17 2 -24 -5 -35 -35 -13 -36 -12 -38
11 -47 31 -12 34 -54 5 -70 -19 -10 -19 -12 -3 -46 14 -29 21 -34 43 -30 35 8
63 -15 55 -47 -5 -20 -2 -26 18 -31 14 -3 32 -8 39 -11 9 -4 19 4 26 20 14 31
45 33 65 4 15 -20 16 -20 48 -4 44 23 42 20 29 45 -15 29 10 59 44 53 19 -4
25 1 35 28 15 42 14 46 -8 52 -28 7 -33 53 -8 70 20 13 20 15 3 50 -15 32 -20
36 -36 27 -30 -16 -63 8 -56 42 4 21 1 27 -19 32 -13 3 -31 9 -40 12 -11 5
-18 0 -22 -14z m26 -156 c29 -31 25 -73 -10 -98 -34 -25 -75 -15 -94 23 -37
70 50 133 104 75z"/>
<path d="M6228 5391 l3 -140 139 -3 c120 -3 137 -1 130 12 -8 15 -264 270
-271 270 -2 0 -3 -63 -1 -139z"/>
<path d="M9624 5488 c14 -72 97 -138 172 -138 48 0 120 35 143 69 15 24 15 24
-9 18 -14 -3 -44 -12 -67 -21 -70 -26 -141 -1 -196 69 -35 44 -52 46 -43 3z"/>
<path d="M11860 5469 c0 -5 5 -7 10 -4 6 3 10 8 10 11 0 2 -4 4 -10 4 -5 0
-10 -5 -10 -11z"/>
<path d="M12651 5144 c-13 -30 -51 -32 -69 -4 -12 19 -13 19 -48 3 -29 -14
-34 -21 -29 -40 9 -36 -11 -64 -40 -57 -20 5 -27 1 -35 -21 -15 -39 -12 -53
10 -60 28 -9 28 -61 0 -70 -20 -6 -20 -6 0 -46 18 -35 23 -38 41 -28 28 15 61
-14 53 -46 -5 -19 0 -25 30 -35 38 -12 56 -7 56 16 0 20 57 18 68 -3 9 -14 14
-15 41 -3 39 16 45 24 32 49 -14 24 18 56 47 47 17 -6 22 0 33 31 11 34 10 38
-10 51 -26 18 -27 58 -1 72 19 10 19 11 -1 45 -17 29 -25 34 -45 29 -31 -8
-55 12 -52 44 3 20 -3 27 -33 37 -35 12 -37 12 -48 -11z m32 -152 c38 -33 6
-112 -46 -112 -66 0 -92 79 -40 119 28 23 54 21 86 -7z"/>
<path d="M5887 5043 c-4 -3 -7 -24 -7 -45 l0 -38 65 0 65 0 0 45 0 45 -58 0
c-32 0 -62 -3 -65 -7z"/>
<path d="M6130 5005 l0 -45 85 0 85 0 0 45 0 45 -85 0 -85 0 0 -45z"/>
<path d="M13782 4942 c-10 -7 -9 -16 3 -47 20 -46 13 -80 -23 -117 -25 -27
-62 -38 -62 -19 0 5 -18 4 -41 -1 l-40 -11 27 -28 c17 -18 32 -25 38 -20 6 4
24 11 40 15 88 21 133 124 91 206 -17 34 -16 32 -33 22z"/>
<path d="M6060 4865 l0 -45 120 0 120 0 0 45 0 45 -120 0 -120 0 0 -45z"/>
<path d="M10681 4894 c0 -11 3 -14 6 -6 3 7 2 16 -1 19 -3 4 -6 -2 -5 -13z"/>
<path d="M8791 4864 c0 -11 3 -14 6 -6 3 7 2 16 -1 19 -3 4 -6 -2 -5 -13z"/>
<path d="M10692 4825 c0 -16 2 -22 5 -12 2 9 2 23 0 30 -3 6 -5 -1 -5 -18z"/>
<path d="M8782 4805 c0 -16 2 -22 5 -12 2 9 2 23 0 30 -3 6 -5 -1 -5 -18z"/>
<path d="M4884 4791 c-2 -2 -4 -96 -4 -208 l0 -203 395 0 395 0 0 208 0 207
-391 0 c-215 0 -393 -2 -395 -4z m261 -126 c14 -13 25 -31 25 -40 0 -27 -46
-65 -80 -65 -28 0 -30 -3 -30 -35 0 -28 -4 -35 -20 -35 -19 0 -20 7 -20 100
l0 100 50 0 c41 0 56 -5 75 -25z m85 -15 c0 -40 0 -40 39 -40 39 0 40 1 43 38
2 29 7 37 23 37 18 0 20 -8 23 -97 l3 -98 -26 0 c-23 0 -25 4 -25 40 l0 40
-40 0 -40 0 0 -40 c0 -33 -3 -40 -20 -40 -19 0 -20 7 -20 100 0 93 1 100 20
100 17 0 20 -7 20 -40z m285 15 c14 -13 25 -31 25 -40 0 -27 -46 -65 -80 -65
-28 0 -30 -3 -30 -35 0 -28 -4 -35 -20 -35 -19 0 -20 7 -20 100 l0 100 50 0
c41 0 56 -5 75 -25z"/>
<path d="M5060 4625 c0 -23 4 -26 28 -23 19 2 27 9 27 23 0 14 -8 21 -27 23
-24 3 -28 0 -28 -23z"/>
<path d="M5434 4635 c-4 -9 -2 -21 4 -27 16 -16 47 -5 47 17 0 26 -42 34 -51
10z"/>
<path d="M5880 4730 l0 -40 115 0 115 0 0 40 0 40 -115 0 -115 0 0 -40z"/>
<path d="M10703 4720 c0 -25 2 -35 4 -22 2 12 2 32 0 45 -2 12 -4 2 -4 -23z"/>
<path d="M8774 4655 c0 -55 1 -76 3 -47 2 29 2 74 0 100 -2 26 -3 2 -3 -53z"/>
<path d="M7614 4515 c0 -99 2 -138 3 -87 2 51 2 132 0 180 -1 48 -3 6 -3 -93z"/>
<path d="M5880 4590 l0 -40 85 0 85 0 0 40 0 40 -85 0 -85 0 0 -40z"/>
<path d="M10713 4575 c0 -27 2 -38 4 -22 2 15 2 37 0 50 -2 12 -4 0 -4 -28z"/>
<path d="M11754 4465 c0 -66 1 -92 3 -57 2 34 2 88 0 120 -2 31 -3 3 -3 -63z"/>
<path d="M8782 4500 c0 -19 2 -27 5 -17 2 9 2 25 0 35 -3 9 -5 1 -5 -18z"/>
<path d="M5880 4450 l0 -40 65 0 65 0 0 40 0 40 -65 0 -65 0 0 -40z"/>
<path d="M9029 4433 c-25 -27 -67 -75 -94 -108 l-48 -60 59 61 c98 102 143
154 132 154 -2 0 -24 -21 -49 -47z"/>
<path d="M9215 4461 c90 -32 181 -93 169 -113 -5 -7 -2 -8 5 -3 7 4 22 -1 34
-12 12 -11 36 -27 52 -37 25 -14 23 -11 -10 19 -83 74 -144 116 -203 140 -34
14 -70 25 -79 25 -10 -1 5 -9 32 -19z"/>
<path d="M10703 4435 c0 -22 2 -30 4 -17 2 12 2 30 0 40 -3 9 -5 -1 -4 -23z"/>
<path d="M10240 4436 c36 -13 85 -32 109 -41 25 -9 82 -41 128 -70 46 -30 83
-52 83 -50 0 3 -39 31 -87 62 -86 56 -196 105 -263 117 -22 4 -10 -3 30 -18z"/>
<path d="M8792 4420 c0 -14 2 -19 5 -12 2 6 2 18 0 25 -3 6 -5 1 -5 -13z"/>
<path d="M10069 4378 c-68 -82 -113 -122 -174 -158 -27 -17 -45 -30 -39 -30
22 0 130 78 169 122 81 91 111 128 102 128 -3 0 -29 -28 -58 -62z"/>
<path d="M5880 4315 c0 -41 2 -45 25 -45 23 0 25 4 25 45 0 41 -2 45 -25 45
-23 0 -25 -4 -25 -45z"/>
<path d="M5960 4315 l0 -45 55 0 55 0 0 45 0 45 -55 0 -55 0 0 -45z"/>
<path d="M9510 4272 c0 -4 10 -13 23 -21 22 -14 22 -14 3 8 -20 22 -26 25 -26
13z"/>
<path d="M7685 4005 c-20 -19 -25 -34 -25 -72 0 -53 66 -1028 75 -1108 3 -27
23 -310 45 -628 33 -499 41 -581 56 -598 17 -19 -9 -19 -1574 -19 -1050 0
-1593 -3 -1597 -10 -4 -7 1643 -10 4934 -10 3287 0 4941 3 4941 10 0 7 -445
10 -1315 10 l-1315 0 14 23 c13 20 24 149 61 732 3 44 10 130 16 190 5 61 30
407 55 770 48 709 48 706 -3 726 -15 5 -901 9 -2184 9 l-2160 0 -24 -25z
m2109 -1027 c3 -13 10 -101 16 -197 9 -125 9 -176 1 -184 -24 -24 -34 16 -46
199 -8 104 -11 192 -9 196 10 16 34 7 38 -14z m206 -23 c0 -106 -23 -350 -34
-357 -27 -17 -30 16 -18 198 7 103 15 191 18 195 3 5 12 9 20 9 10 0 14 -12
14 -45z m-325 -246 c7 -103 -1 -137 -26 -112 -15 15 -29 204 -16 221 21 27 35
-9 42 -109z m447 5 c-3 -104 -11 -132 -35 -117 -11 6 -3 206 8 224 4 5 12 8
18 6 8 -3 11 -37 9 -113z"/>
<path d="M6528 2933 c6 -2 18 -2 25 0 6 3 1 5 -13 5 -14 0 -19 -2 -12 -5z"/>
<path d="M6598 2923 c7 -3 16 -2 19 1 4 3 -2 6 -13 5 -11 0 -14 -3 -6 -6z"/>
<path d="M6769 2859 c86 -43 119 -67 191 -138 48 -47 110 -119 138 -160 29
-41 52 -71 52 -65 0 17 -109 167 -158 217 -61 63 -155 131 -223 161 -103 45
-103 37 0 -15z"/>
<path d="M12820 2837 c-76 -44 -140 -99 -198 -172 -65 -80 -160 -248 -132
-230 6 3 10 10 10 16 0 22 113 182 176 249 38 40 102 95 143 122 83 54 84 63
1 15z"/>
</g>
</svg>
